<?xml version="1.0" encoding="utf-8"?>
<!-- Generator: Adobe Illustrator 16.0.0, SVG Export Plug-In . SVG Version: 6.00 Build 0)  -->
<!DOCTYPE svg PUBLIC "-//W3C//DTD SVG 1.1//EN" "http://www.w3.org/Graphics/SVG/1.1/DTD/svg11.dtd">
<svg version="1.1" id="Layer_1" xmlns="http://www.w3.org/2000/svg" xmlns:xlink="http://www.w3.org/1999/xlink" x="0px" y="0px"
	 width="50px" height="50px" viewBox="0 0 400 400" enable-background="new 0 0 400 400" xml:space="preserve">
<g>
	<path fill-rule="evenodd" clip-rule="evenodd" d="M157.666,57.858c28.322,0,56.27,0,84.615,0c0-0.901-0.01-1.772,0.002-2.642
		c0.1-7.765-0.173-15.557,0.387-23.289c1.122-15.49,15.255-30.724,32.307-31.235c8.04-0.242,16.238-0.48,24.132,0.762
		c15.104,2.377,27.244,17.063,27.707,32.359c0.214,7.079,0.076,14.168,0.098,21.253c0.003,0.828,0,1.656,0,2.736
		c0.949,0.042,1.752,0.109,2.555,0.109c8.228,0.008,16.465,0.261,24.682-0.051c15.111-0.574,29.353,12.266,29.332,29.379
		c-0.118,94.465-0.059,188.931-0.055,283.396c0,10.166-4.226,18.233-12.196,24.374c-4.1,3.158-8.873,4.609-14.011,4.896
		c-1.216,0.068-2.437,0.072-3.655,0.072c-102.465,0.003-204.929-0.014-307.394,0.023c-12.685,0.005-21.56-5.848-27.192-16.974
		c-1.897-3.75-2.447-7.828-2.448-11.978c-0.009-94.617-0.022-189.235,0.009-283.854c0.004-13.777,8.841-25.536,21.307-28.451
		c2.564-0.6,5.274-0.761,7.921-0.792c8.15-0.099,16.303-0.036,24.454-0.036c0.827,0,1.654,0,2.812,0c0-0.979,0-1.786,0-2.593
		c0.007-6.704-0.084-13.41,0.041-20.111c0.313-16.729,12.402-31.396,28.88-34.047c9.459-1.522,19.211-1.699,28.647,0.359
		c15.412,3.362,26.688,17.648,27.021,33.55c0.14,6.701,0.036,13.407,0.043,20.111C157.666,56.006,157.666,56.827,157.666,57.858z
		 M355.112,143.648c-103.558,0-206.892,0-310.2,0c0,76.098,0,152.021,0,227.976c103.473,0,206.805,0,310.2,0
		C355.112,295.563,355.112,219.691,355.112,143.648z M129.393,69.028c0-10.667,0.029-21.333-0.014-32
		c-0.018-4.57-2.382-7.204-6.684-7.317c-4.873-0.128-9.753-0.129-14.626-0.003c-4.134,0.107-6.4,2.406-6.788,6.532
		c-0.071,0.756-0.078,1.521-0.078,2.282c-0.004,20.19-0.004,40.38,0,60.57c0,0.761,0.01,1.526,0.082,2.282
		c0.397,4.188,2.604,6.367,6.784,6.468c4.341,0.104,8.685,0.061,13.027,0.046c6.099-0.021,8.292-2.199,8.298-8.232
		C129.404,89.446,129.396,79.237,129.393,69.028z M270.555,68.922c0,10.59-0.034,21.181,0.017,31.771
		c0.022,4.61,2.446,7.069,7.03,7.164c4.493,0.093,8.991,0.079,13.485,0.021c5.377-0.07,7.63-2.402,7.646-7.994
		c0.039-13.486,0.014-26.971,0.014-40.457c0-7.314,0.049-14.628-0.021-21.942c-0.052-5.458-2.462-7.79-7.874-7.815
		c-4.037-0.02-8.075-0.013-12.113-0.002c-5.847,0.015-8.177,2.33-8.185,8.17C270.54,48.198,270.55,58.561,270.555,68.922z"/>
</g>
</svg>
