<svg xmlns="http://www.w3.org/2000/svg" width="400" height="400" viewBox="0 0 400 400">
<g>
	<path d="M72.634,205.637c1.952,7.58,5.985,14.635,3.589,22.211
		c-2.05,6.485-1.789,12.792-0.763,19.227c1.457,9.146,2.825,18.317,4.694,27.384c5.044,24.476,17.316,46.534,23.845,70.524
		c0.15,0.555,0.74,0.979,1.094,1.486c6.472,9.28,10.047,19.821,11.947,30.751c1.353,7.783,4.854,13.956,10.216,19.252
		c5.359,5.297,12.315,4.709,14.993-2.302c3.238-8.482,9.495-9.508,17.378-10.009c-6.951-5.379-3.257-11.354,1.336-12.851
		c7.803-2.548,7.277-7.608,6.411-12.923c-1.061-6.492,0.063-12.151,3.221-17.77c2.799-4.981,3.583-10.513,2.889-16.172
		c-0.75-6.118-1.633-12.22-2.528-18.32c-0.687-4.669,0.658-10.894,4.226-11.22c8.451-0.765,11.181-10.715,19.684-10.49
		c1.986,0.054,4.47-1.592,4.938-3.756c1.401-6.471,6.876-8.855,11.098-12.818c6.253-5.865,13.876-10.407,18.578-17.896
		c4.093-6.514,9.734-10.94,17.048-13.583c6.47-2.342,11.276-7.072,12.111-14.007c1.181-9.795,4.943-13.246,14.694-11.749
		c9.374,1.439,11.729-1.032,10.113-10.632c-0.358-2.132-0.092-4.669-1.172-6.333c-4.646-7.163-0.772-17.751-10.049-23.254
		c-3.52-2.084,0.299-5.416,2.119-6.645c5.497-3.715,5.863-6.387-0.45-9.356c-1.906-0.899-3.665-2.566-2.987-5.177
		c0.41-1.577,1.541-3.005,3.167-2.987c5.615,0.069,13.598,1.841,14.569,5.502c2.673,10.074,9,8.323,15.771,7.827
		c3.388-0.25,6.797-0.207,10.196-0.217c2.121-0.007,4.53-0.41,5.333,2.429c0.646,2.28,0.004,4.346-1.664,5.941
		c-1.559,1.49-3.299,2.798-5.01,4.122c-3.443,2.661-5.546,5.84-4.085,10.389c0.754,2.353,1.432,4.771,4.235,5.655
		c5.793,1.834,3.284-6.123,7.724-6.242c3.175,2.675,2.615,7.21,4.567,10.61c1.586,2.762,1.11,7.731,5.715,7.271
		c5.709-0.573,3.202-5.488,3.589-8.859c0.386-3.36,1.406-6.659,1.614-10.02c0.254-4.115,0.823-7.319,6.119-7.174
		c3.567,0.098,4.341-3.016,5.054-5.709c2.486-9.403,4.598-18.916,7.393-28.225c2.438-8.124,7.493-13.96,16.541-15.113
		c1.533-0.195,5.143,0.997,3.997-1.269c-2.602-5.147,5.865-10.958,1.499-12.307c-7.843-2.415-9.275-9.048-13.536-13.761
		c-2.496-2.759-5.026-1.892-7.265,0.214c-2.441,2.294-4.976,3.56-8.338,2.269c-4.593-1.762-6.905,1.574-10.342,3.756
		c-8.939,5.68-13.981,16.443-25.286,18.922c-3.858,0.845-3.278,2.856-0.618,5.046c5.537,4.55,3.473,7.08-2.474,8.055
		c-5.774,0.943-11.603,1.555-17.402,2.338c-9.615,1.298-13.119-1.193-14.945-10.878c-0.412-2.193-0.497-4.492-3.245-4.887
		c-2.391-0.344-4.46,0.986-5.392,2.904c-1.182,2.436-2.761,5.597-2.108,7.848c3.477,11.97-3.36,12.241-11.813,11.114
		c-2.742-0.366-5.476-0.946-8.228-1.048c-10.202-0.37-18.145-8.678-27.139-9.599c-14.369-1.468-26.537-5.996-38.36-13.677
		c-9.947-6.467-11.424-10.777-3.335-19.988c3.852-4.386,1.917-5.347-1.566-8.124c-9.144-7.29-23.381-10.356-22.557-26.049
		c9.268,1.138,13.528-2.407,9.066-8.294c-5.78-7.624-2.728-12.075,2.268-17.36c2.093-2.211,4.22-4.585,5.567-7.268
		c1.755-3.487,4.224-7.529,1.396-11.292c-2.667-3.549-6.834-5.249-11.43-4.749c-2.746,0.297-5.763,0.515-8.09,1.798
		c-8.798,4.854-14.759,1.323-20.884-5.271c-9.692-10.437-20.814-16.929-35.813-9.951c-4.457,2.073-8.564,4.43-10.069,8.831
		c-1.828,5.347,4.827,4.375,6.785,7.174c2.539,3.625,9.62,5.176,5.881,11.644c-7.062,12.209-5.008,21.547,6.496,29.928
		c2.596,1.889,6.108,2.995,7.591,6.337c-1.857,3.31-7.346,3.534-7.005,8.156c0.656,8.888-5.727,14.112-10.484,19.876
		c-6.365,7.714-12.625,15.537-19.459,22.91c-5.58,6.025-11.104,8.428-18.61,5.543c-7.527-2.893-8.16,4.857-11.993,7.569
		c-2.568,1.82-4.779,5.659-1.813,7.914c6.168,4.694,3.866,13.905,10.854,18.158c2.075,1.265,2.82,5.463,3.273,8.453
		c0.568,3.734,2.165,7.906-5.545,6.841c-5.816-0.801-12.099,0.108-18.214-0.533c-4.546-0.471-8.455,2.636-10.822,5.561
		c-2.45,3.03,1.87,6.05,3.704,8.642c5.777,8.171,13.57,8.425,23.717,3.313c-5.684,8.442-12.354,9.334-20.18,8.888
		c1.991,7.428,7.844,11.412,12.091,16.418c3.968,4.677,8.086,9.483,15.702,6.706C64.723,218.513,72.617,216.679,72.634,205.637z"/>
	<path d="M72.634,205.637c-0.018,11.042-7.911,12.876-15.371,15.595
		c-7.616,2.777-11.734-2.029-15.702-6.706c-4.247-5.006-10.1-8.99-12.091-16.418c7.826,0.446,14.496-0.445,20.18-8.888
		c-10.146,5.111-17.939,4.857-23.717-3.313c-1.834-2.592-6.154-5.612-3.704-8.642c2.367-2.925,6.276-6.032,10.822-5.561
		c6.115,0.642,12.397-0.268,18.214,0.533c7.71,1.065,6.113-3.107,5.545-6.841c-0.453-2.99-1.198-7.188-3.273-8.453
		c-6.987-4.252-4.686-13.463-10.854-18.158c-2.967-2.255-0.756-6.094,1.813-7.914c3.833-2.711,4.466-10.462,11.993-7.569
		c7.506,2.885,13.03,0.482,18.61-5.543c6.834-7.373,13.094-15.196,19.459-22.91c4.758-5.764,11.141-10.988,10.484-19.876
		c-0.341-4.622,5.147-4.847,7.005-8.156c-1.482-3.342-4.995-4.448-7.591-6.337C92.953,52.1,90.899,42.762,97.96,30.553
		c3.739-6.467-3.342-8.019-5.881-11.644c-1.958-2.799-8.613-1.827-6.785-7.174c1.505-4.401,5.612-6.757,10.069-8.831
		c14.998-6.978,26.12-0.486,35.813,9.951c6.125,6.594,12.086,10.125,20.884,5.271c2.327-1.283,5.344-1.5,8.09-1.798
		c4.596-0.5,8.763,1.2,11.43,4.749c2.827,3.763,0.358,7.805-1.396,11.292c-1.348,2.683-3.475,5.057-5.567,7.268
		c-4.995,5.286-8.048,9.737-2.268,17.36c4.462,5.887,0.201,9.432-9.066,8.294c-0.824,15.693,13.413,18.76,22.557,26.049
		c3.483,2.777,5.418,3.737,1.566,8.124c-8.089,9.211-6.612,13.521,3.335,19.988c11.823,7.682,23.991,12.209,38.36,13.677
		c8.994,0.921,16.937,9.229,27.139,9.599c2.752,0.102,5.485,0.682,8.228,1.048c8.453,1.127,15.29,0.855,11.813-11.114
		c-0.652-2.251,0.927-5.412,2.108-7.848c0.932-1.918,3.001-3.248,5.392-2.904c2.748,0.395,2.833,2.693,3.245,4.887
		c1.826,9.686,5.33,12.176,14.945,10.878c5.8-0.783,11.628-1.396,17.402-2.338c5.946-0.975,8.011-3.505,2.474-8.055
		c-2.66-2.189-3.24-4.201,0.618-5.046c11.305-2.479,16.347-13.242,25.286-18.922c3.437-2.182,5.749-5.518,10.342-3.756
		c3.362,1.291,5.896,0.025,8.338-2.269c2.238-2.106,4.769-2.973,7.265-0.214c4.261,4.712,5.693,11.346,13.536,13.761
		c4.366,1.348-4.101,7.159-1.499,12.307c1.146,2.266-2.464,1.073-3.997,1.269c-9.048,1.153-14.103,6.989-16.541,15.113
		c-2.795,9.309-4.906,18.821-7.393,28.225c-0.713,2.693-1.486,5.807-5.054,5.709c-5.296-0.145-5.865,3.059-6.119,7.174
		c-0.208,3.36-1.229,6.659-1.614,10.02c-0.387,3.371,2.12,8.286-3.589,8.859c-4.604,0.46-4.129-4.51-5.715-7.271
		c-1.952-3.4-1.393-7.936-4.567-10.61c-4.439,0.119-1.931,8.076-7.724,6.242c-2.804-0.885-3.481-3.303-4.235-5.655
		c-1.461-4.549,0.642-7.729,4.085-10.389c1.711-1.323,3.451-2.632,5.01-4.122c1.668-1.595,2.31-3.662,1.664-5.941
		c-0.803-2.838-3.212-2.436-5.333-2.429c-3.399,0.011-6.809-0.033-10.196,0.217c-6.771,0.497-13.098,2.248-15.771-7.827
		c-0.972-3.661-8.954-5.434-14.569-5.502c-1.626-0.018-2.757,1.41-3.167,2.987c-0.678,2.61,1.081,4.278,2.987,5.177
		c6.313,2.969,5.947,5.641,0.45,9.356c-1.82,1.229-5.639,4.561-2.119,6.645c9.276,5.503,5.403,16.091,10.049,23.254
		c1.08,1.664,0.813,4.201,1.172,6.333c1.615,9.6-0.739,12.071-10.113,10.632c-9.751-1.497-13.514,1.954-14.694,11.749
		c-0.835,6.935-5.642,11.665-12.111,14.007c-7.313,2.643-12.955,7.069-17.048,13.583c-4.702,7.489-12.325,12.031-18.578,17.896
		c-4.222,3.963-9.697,6.348-11.098,12.818c-0.468,2.164-2.951,3.81-4.938,3.756c-8.503-0.225-11.232,9.726-19.684,10.49
		c-3.567,0.326-4.912,6.551-4.226,11.22c0.896,6.101,1.778,12.202,2.528,18.32c0.694,5.659-0.09,11.19-2.889,16.172
		c-3.157,5.618-4.281,11.277-3.221,17.77c0.866,5.314,1.392,10.375-6.411,12.923c-4.593,1.497-8.287,7.472-1.336,12.851
		c-7.883,0.501-14.14,1.526-17.378,10.009c-2.678,7.011-9.634,7.599-14.993,2.302c-5.361-5.296-8.863-11.469-10.216-19.252
		c-1.9-10.93-5.476-21.471-11.947-30.751c-0.354-0.508-0.943-0.932-1.094-1.486c-6.528-23.99-18.801-46.049-23.845-70.524
		c-1.869-9.066-3.237-18.237-4.694-27.384c-1.026-6.435-1.287-12.741,0.763-19.227C78.62,220.271,74.586,213.217,72.634,205.637z"/>
</g>
</svg>
