<?xml version="1.0" encoding="utf-8"?>
<!-- Generator: Adobe Illustrator 16.0.0, SVG Export Plug-In . SVG Version: 6.00 Build 0)  -->
<!DOCTYPE svg PUBLIC "-//W3C//DTD SVG 1.1//EN" "http://www.w3.org/Graphics/SVG/1.1/DTD/svg11.dtd">
<svg version="1.1" id="Layer_1" xmlns="http://www.w3.org/2000/svg" xmlns:xlink="http://www.w3.org/1999/xlink" x="0px" y="0px"
	 width="400px" height="400px" viewBox="0 0 400 400" enable-background="new 0 0 400 400" xml:space="preserve">
<g id="Jetsave" opacity="0.05">
	<g>
		<path fill="#333333" d="M123.721,134.094c0.041,1.571-0.229,3.01-0.809,4.32c-0.581,1.31-1.282,2.544-2.106,3.702
			c-1.67,2.393-3.483,4.641-5.439,6.743c-1.956,2.105-3.901,4.233-5.83,6.387c-1.908,2.078-3.837,4.087-5.787,6.028
			c-1.952,1.943-3.908,3.904-5.869,5.883c-3.468,3.517-6.985,6.916-10.551,10.199c-3.566,3.283-7.266,6.466-11.102,9.549
			c-3.912,3.061-7.954,6.004-12.124,8.824c-4.173,2.822-8.55,5.217-13.131,7.184c-2.232,0.924-4.663,1.82-7.292,2.691
			c-2.628,0.867-5.177,1.322-7.648,1.363c-2.971,0.064-5.893-0.189-8.761-0.762c-0.683-0.195-1.364-0.391-2.046-0.586
			s-1.306-0.457-1.868-0.781c-0.13-0.121-0.234-0.191-0.308-0.213c-0.077-0.021-0.179-0.094-0.309-0.211l-0.227-0.064
			c-1.138,0.246-2.366,0.1-3.687-0.441c-2.166-0.459-4.122-1.5-5.87-3.125c-1.749-1.627-3.057-3.357-3.925-5.191
			c-0.086-0.273-0.195-0.535-0.33-0.779c-0.134-0.248-0.244-0.51-0.329-0.785c-0.391,0.223-0.608,0.119-0.647-0.311
			c-0.356-1.908-0.205-3.857,0.444-5.842c0.65-1.988,1.379-3.809,2.182-5.464c1.008-2.09,2.164-4.115,3.465-6.079
			c1.301-1.965,2.671-3.888,4.115-5.771c5.237-7.11,11.333-13.644,18.291-19.605c0.021-0.075,0.059-0.064,0.113,0.033
			c-2.752,2.738-5.403,5.545-7.95,8.422c-2.547,2.88-4.965,5.877-7.252,8.992c0.997-1.19,2.007-2.355,3.033-3.498
			c1.022-1.14,2.136-2.235,3.34-3.286c1.203-1.048,2.446-2.168,3.731-3.358c1.283-1.189,2.688-2.016,4.217-2.481
			c1.104-0.421,2.259-0.583,3.46-0.484c1.202,0.099,2.349,0.387,3.443,0.864c1.092,0.478,2.075,1.129,2.945,1.951
			c0.871,0.825,1.576,1.725,2.118,2.699c0.41,0.855,0.754,1.876,1.029,3.063c0.275,1.187,0.082,2.218-0.579,3.094
			c-0.262,0.336-0.646,0.39-1.153,0.161c-0.51-0.227-0.92-0.51-1.234-0.846c-0.196,0.109-0.339,0.252-0.431,0.43
			c-0.094,0.179-0.237,0.322-0.431,0.43c-0.868,0.736-1.697,1.482-2.487,2.24c-0.792,0.757-1.594,1.553-2.405,2.386
			c-1.607,1.59-3.127,3.246-4.562,4.966c-1.438,1.722-2.854,3.446-4.251,5.178c-1.401,1.73-2.757,3.534-4.075,5.413
			c-1.318,1.877-2.536,3.764-3.651,5.658c-0.466,0.768-0.853,1.539-1.156,2.313c-0.304,0.775-0.462,1.611-0.475,2.516
			c0.173-0.035,0.511-0.064,1.008-0.086c-0.206-0.143-0.275-0.324-0.21-0.553c0.065-0.227,0.232-0.385,0.503-0.471
			c0.92-0.064,1.861-0.125,2.818-0.176c0.958-0.055,1.908-0.152,2.851-0.291c0.346-0.064,0.887-0.236,1.625-0.518
			c1.797-0.551,3.527-1.225,5.191-2.018c1.661-0.795,3.35-1.604,5.062-2.424c0.508-0.346,1.037-0.688,1.584-1.021
			c0.546-0.336,1.086-0.715,1.617-1.137c2.957-2.021,5.893-4.109,8.81-6.269c2.913-2.157,5.768-4.393,8.566-6.708
			c5.568-4.554,10.963-9.281,16.182-14.181c5.217-4.901,10.195-10.034,14.932-15.401c-4.987,5.951-10.154,11.604-15.503,16.959
			c-5.347,5.356-11.024,10.494-17.027,15.416c-2.384,2.023-4.676,3.868-6.875,5.532c5.417-3.447,10.55-7.266,15.4-11.453
			c4.848-4.186,9.597-8.523,14.249-13.014c3.402-3.288,6.781-6.562,10.136-9.826c3.353-3.261,6.682-6.51,9.989-9.745
			c0.791-0.758,1.596-1.49,2.415-2.199c0.817-0.707,1.648-1.392,2.495-2.053c-0.153-0.044-0.402-0.032-0.748,0.032
			c-2.49,0.107-4.997,0.271-7.52,0.489c-2.523,0.221-5.026,0.509-7.505,0.862c-2.405,0.377-4.781,0.803-7.132,1.277
			c-2.351,0.476-4.729,0.9-7.131,1.276c-0.521,0.097-1.041,0.194-1.56,0.291c-0.521,0.097-1.014,0.244-1.479,0.438
			c-0.271,0.087-0.543,0.173-0.813,0.259c-0.271,0.088-0.542,0.173-0.813,0.26c-0.175,0.032-0.356,0.021-0.544-0.034
			c-0.19-0.055-0.372-0.064-0.544-0.033l0.341,0.098c-0.782,0.434-1.296,0.941-1.545,1.525c-0.25,0.586-0.521,1.246-0.813,1.98
			c-0.044,0.153-0.149,0.308-0.316,0.463c-0.169,0.157-0.318,0.176-0.447,0.056c-1.094-0.477-1.866-1.292-2.313-2.446
			c-0.449-1.153-0.722-2.277-0.816-3.371c-0.119-1.591,0.013-3.05,0.394-4.377c0.38-1.325,0.861-2.724,1.449-4.197
			c0.585-1.472,1.425-2.686,2.521-3.645c1.093-0.957,2.346-1.746,3.754-2.368c1.408-0.621,2.857-1.107,4.354-1.458
			c1.494-0.35,2.934-0.654,4.321-0.914c3.021-0.527,6.04-0.975,9.056-1.34c3.015-0.365,6.029-0.649,9.04-0.853
			c-0.878-0.087-1.784-0.143-2.72-0.165c-0.937-0.023-1.855-0.041-2.754-0.051c-3.596-0.047-7.169,0.118-10.72,0.494
			c-3.553,0.377-7.11,0.914-10.673,1.615c6.812-1.737,13.809-2.684,20.988-2.84c3.615-0.029,7.378,0.147,11.288,0.529
			c0.248-0.009,0.529,0.01,0.844,0.059c0.313,0.049,0.632,0.079,0.958,0.09c0.498-0.021,1.003,0.001,1.52,0.066
			c0.514,0.066,1.02,0.088,1.518,0.065c0.8,0.066,1.603,0.133,2.404,0.197c0.8,0.066,1.581,0.207,2.34,0.425
			c1.06,0.304,1.936,0.679,2.629,1.123c0.692,0.444,1.44,0.987,2.241,1.626c0.951,0.685,1.699,1.718,2.246,3.104
			c0.545,1.386,0.708,2.746,0.492,4.077C123.483,131.771,123.667,132.848,123.721,134.094z"/>
		<path fill="#333333" d="M162.585,191.61c0.151,0.043,0.44,0.248,0.868,0.619c0.427,0.367,0.467,0.584,0.121,0.648
			c-2.784,0.844-5.559,1.729-8.326,2.656c-2.769,0.93-5.501,1.951-8.197,3.063c-2.773,1.094-5.52,2.232-8.238,3.42
			c-2.721,1.189-5.531,2.271-8.434,3.242c-2.655,0.961-5.378,1.738-8.172,2.33c-2.794,0.596-5.626,0.889-8.495,0.887
			c-1.473-0.014-2.913-0.139-4.321-0.377c-1.407-0.24-2.749-0.707-4.027-1.4c-0.769-0.467-1.586-1.051-2.451-1.748
			c-0.867-0.701-1.541-1.488-2.028-2.365c-0.551-0.65-0.939-1.295-1.167-1.934c-0.401-1.18-0.618-2.207-0.656-3.08
			c-0.037-0.871,0.081-1.924,0.352-3.158c0.165-0.855,0.428-1.701,0.791-2.541c0.363-0.838,0.752-1.691,1.163-2.557
			c1.303-2.826,2.913-5.439,4.832-7.841c1.843-2.424,3.861-4.675,6.056-6.752c2.195-2.077,4.499-4.04,6.917-5.89
			c2.471-1.752,5.074-3.322,7.809-4.712c2.735-1.388,5.57-2.481,8.506-3.281c1.581-0.365,3.229-0.612,4.947-0.735
			c1.715-0.124,3.403-0.07,5.059,0.159c1.656,0.229,3.276,0.653,4.864,1.271c1.585,0.62,3,1.476,4.245,2.57
			c0.258,0.239,0.527,0.521,0.803,0.845c0.276,0.325,0.484,0.673,0.625,1.041c0.843,1.062,1.112,2.409,0.81,4.045
			c-0.305,1.635-0.718,3.075-1.239,4.319c-2.073,4.655-4.968,8.459-8.684,11.41c-1.812,1.449-3.861,2.666-6.15,3.65
			c-2.293,0.984-4.646,1.682-7.06,2.098c-2.417,0.414-4.833,0.48-7.253,0.195c-2.42-0.283-4.701-0.979-6.843-2.084
			c-0.24,0.26-0.43,0.492-0.57,0.697c-0.142,0.205-0.294,0.449-0.456,0.73c-0.824,1.158-1.605,2.307-2.342,3.449
			c-0.738,1.141-1.368,2.336-1.887,3.58c-0.349,0.639-0.62,1.299-0.815,1.98c-0.196,0.682-0.391,1.363-0.586,2.047l-0.229,0.795
			c0.65,0.023,1.304,0.025,1.966,0.01c0.659-0.014,1.325-0.051,1.998-0.104c2.586-0.16,5.174-0.525,7.757-1.098
			c2.582-0.57,5.094-1.246,7.53-2.023c2.533-0.83,5.042-1.711,7.524-2.641c2.48-0.928,4.987-1.809,7.522-2.641
			c2.533-0.832,5.086-1.514,7.66-2.049C157.253,191.825,159.889,191.575,162.585,191.61z M141.877,171.159
			c-2.253,0.995-4.467,2.206-6.638,3.633c-2.174,1.428-4.186,2.942-6.038,4.542c-0.847,0.661-1.645,1.374-2.397,2.142
			c-0.755,0.768-1.527,1.531-2.317,2.289c0.573,0.001,1.11-0.009,1.608-0.031c0.498-0.021,0.996-0.041,1.495-0.063
			c3.875-0.365,7.612-1.386,11.21-3.06c3.737-1.881,6.863-4.347,9.378-7.399c0.617-0.724,1.149-1.433,1.594-2.125
			c0.443-0.691,0.936-1.412,1.48-2.159c0.021-0.075,0.172-0.32,0.456-0.73c-0.5,0.021-1.022,0.057-1.569,0.104
			c-0.547,0.048-1.042,0.131-1.486,0.25c-1.236,0.303-2.411,0.683-3.526,1.142C144.011,170.153,142.927,170.642,141.877,171.159z"/>
		<path fill="#333333" d="M226.113,168.245c0.095,1.095-0.069,2.237-0.49,3.427c-0.425,1.191-1.28,1.89-2.569,2.093
			c-0.573,0.001-0.911-0.323-1.014-0.968c-0.104-0.645-0.024-1.133,0.237-1.47c0.432-0.368,0.687-0.827,0.765-1.38
			c0.021-0.074-0.007-0.124-0.081-0.146c-0.26-0.238-0.469-0.442-0.624-0.61c-0.159-0.168-0.416-0.344-0.772-0.529
			c-0.791-0.391-1.602-0.705-2.436-0.944c-0.835-0.239-1.667-0.478-2.5-0.717c-1.994-0.489-3.942-0.986-5.847-1.491
			c-1.907-0.505-3.865-0.964-5.878-1.378c-0.856-0.163-1.654-0.309-2.395-0.441c-0.744-0.13-1.504-0.265-2.282-0.408
			c-1.148,1.146-2.285,2.318-3.406,3.513c-1.123,1.197-2.27,2.405-3.438,3.628c-2.483,2.651-4.917,5.275-7.3,7.871
			c-2.387,2.597-4.792,5.269-7.22,8.017c-1.713,1.969-3.406,3.943-5.082,5.924c-1.674,1.98-3.379,3.994-5.114,6.037l8.584-9.348
			c3.534-3.742,7.075-7.444,10.625-11.1c3.549-3.657,7.22-7.236,11.014-10.743c0.096-0.053,0.158-0.056,0.187-0.007
			c0.027,0.05-0.01,0.101-0.106,0.154c-3.405,3.864-6.849,7.653-10.332,11.369c-3.486,3.717-7.005,7.484-10.561,11.304
			c-3.436,3.688-6.84,7.408-10.21,11.156c-3.372,3.75-6.774,7.469-10.209,11.158c-0.392,0.791-0.62,1.588-0.685,2.387
			c5.309-3.645,10.788-6.951,16.438-9.926c5.65-2.973,11.538-5.426,17.67-7.357c0.367-0.143,0.825,0.051,1.372,0.576
			c0.545,0.527,0.623,0.898,0.235,1.113c-6.154,3.156-12.213,6.484-18.177,9.982c-5.965,3.498-11.742,7.273-17.333,11.33
			c-0.282,0.41-0.705,0.738-1.268,0.988c-0.098,0.053-0.32,0.113-0.666,0.18c-0.174,0.029-0.509,0.057-1.007,0.078
			c-1.398,0.01-2.757-0.4-4.076-1.229c-1.322-0.83-2.452-1.748-3.393-2.756c-1.438-1.563-2.514-3.385-3.227-5.477
			c-0.712-2.09-0.755-4.234-0.125-6.432c0.425-1.766,1.179-3.395,2.263-4.889c1.085-1.49,2.158-2.947,3.22-4.365
			c4.91-5.973,9.935-11.914,15.072-17.821c2.591-3.029,5.223-5.986,7.894-8.87c2.672-2.881,5.368-5.78,8.089-8.69l1.073-1.169
			c-3.952-0.804-7.809-1.726-11.57-2.764c-3.763-1.036-7.482-2.287-11.163-3.754c-1.678-0.727-3.483-1.51-5.415-2.352
			c-1.932-0.839-3.71-1.863-5.333-3.066c-1.624-1.204-2.876-2.627-3.756-4.275c-0.881-1.646-1.082-3.589-0.604-5.832
			c0.099-0.626,0.387-1.058,0.862-1.291c0.479-0.232,0.982-0.272,1.511-0.12c0.659,0.271,1.233,0.846,1.72,1.723
			c0.076,0.022,0.199,0.1,0.365,0.228c0.168,0.131,0.431,0.289,0.788,0.471c0.487,0.306,0.981,0.59,1.478,0.854
			c0.498,0.266,0.992,0.552,1.478,0.854c0.941,0.436,1.864,0.863,2.767,1.286c0.905,0.425,1.828,0.853,2.769,1.286
			c1.958,0.89,3.964,1.69,6.015,2.401c2.052,0.711,4.101,1.36,6.146,1.946c3.257,0.934,6.505,1.763,9.743,2.486
			c3.237,0.724,6.505,1.477,9.808,2.258c0.574-0.573,1.153-1.165,1.74-1.776c0.584-0.611,1.229-1.143,1.934-1.598
			c0.195-0.108,0.377-0.24,0.545-0.398c0.167-0.155,0.348-0.288,0.544-0.397l-2.614-0.749c-0.228-0.065-0.544-0.32-0.95-0.765
			c-0.408-0.443-0.338-0.752,0.204-0.925c1.46-0.237,3.01-0.202,4.645,0.102c0.399,0.034,0.846,0.12,1.339,0.261
			s0.949,0.191,1.373,0.148c0.293-0.163,0.524-0.259,0.699-0.292c0.41-0.292,0.898-0.418,1.461-0.38
			c0.562,0.039,1.119,0.179,1.665,0.416c0.548,0.24,1.083,0.516,1.607,0.83c0.525,0.316,0.954,0.602,1.291,0.862
			c0.259,0.24,0.596,0.562,1.014,0.968c0.416,0.408,0.798,0.865,1.144,1.374c0.346,0.51,0.61,1.017,0.795,1.519
			c0.181,0.504,0.21,0.983,0.08,1.438c-0.25,0.585-0.457,1.161-0.62,1.729c-0.163,0.569-0.406,1.135-0.731,1.697
			c2.273,0.651,4.535,1.342,6.788,2.069c2.251,0.728,4.47,1.569,6.656,2.523c1.623,0.63,3.122,1.552,4.497,2.765
			C225.12,164.845,225.909,166.384,226.113,168.245z"/>
		<path fill="#333333" d="M224.984,178.623c0.235,0.314,0.55,0.794,0.939,1.439c0.387,0.646,0.685,1.324,0.893,2.039
			c0.203,0.716,0.238,1.381,0.104,1.998c-0.139,0.617-0.61,1.055-1.423,1.314c-1.354,0.432-2.715,0.74-4.078,0.922
			c-1.366,0.184-2.712,0.453-4.045,0.809c-1.258,0.377-2.481,0.785-3.672,1.223c-1.192,0.439-2.325,0.955-3.396,1.549
			c-3.544,1.773-6.768,4.006-9.671,6.699c1.528-1.039,3.117-2.078,4.77-3.123c1.653-1.043,3.353-1.969,5.103-2.779
			c1.748-0.811,3.54-1.404,5.37-1.783c1.829-0.377,3.688-0.418,5.571-0.125c0.075,0.021,0.107,0.053,0.097,0.09
			c-0.011,0.039-0.054,0.047-0.13,0.023c-3.639,0.107-6.998,1.029-10.08,2.77c-3.083,1.742-6.104,3.623-9.061,5.645
			c-1.527,1.037-3.021,2.168-4.478,3.391c-1.458,1.223-2.741,2.617-3.846,4.188c-0.12,0.131-0.23,0.303-0.333,0.52
			c-0.104,0.215-0.216,0.389-0.334,0.52c0.01,1.396-0.013,2.764-0.068,4.102c-0.057,1.336,0.007,2.688,0.191,4.051
			c0.247,1.713,0.574,3.363,0.979,4.955c0.404,1.592,0.838,3.152,1.303,4.68c0.409,1.43,0.807,2.98,1.189,4.646
			c0.383,1.668,0.623,3.334,0.719,5.004c0.095,1.666-0.021,3.293-0.354,4.881c-0.331,1.584-0.981,3.059-1.944,4.424
			c-0.38,0.463-0.85,0.74-1.406,0.826c-0.559,0.086-1.145,0.061-1.761-0.074c-0.618-0.137-1.214-0.348-1.787-0.635
			c-0.575-0.287-1.067-0.572-1.478-0.855c-0.953-0.109-1.901-0.381-2.842-0.814c-0.941-0.434-1.797-0.883-2.564-1.35
			c-3.053-1.941-5.791-4.408-8.212-7.396c-0.79-0.965-1.642-2.215-2.555-3.746c-0.913-1.535-1.59-3.102-2.034-4.705
			c-0.443-1.604-0.515-3.141-0.215-4.613c0.298-1.471,1.305-2.619,3.016-3.441c0.467-0.191,1.035-0.174,1.706,0.059
			c0.671,0.234,1.262,0.609,1.77,1.123c0.509,0.516,0.862,1.068,1.062,1.658c0.2,0.592,0.045,1.057-0.463,1.404
			c-0.922,0.639-1.334,1.504-1.238,2.598c0.098,1.094,0.426,2.232,0.988,3.42c0.562,1.186,1.207,2.293,1.938,3.322
			c0.73,1.029,1.344,1.82,1.842,2.375c0.897,1.158,2.055,2.268,3.473,3.332c0.585-1.475,1.036-2.902,1.353-4.287
			c0.314-1.387,0.386-2.924,0.215-4.613c-0.162-1.439-0.386-2.879-0.671-4.313c-0.286-1.436-0.547-2.883-0.783-4.346
			c-0.109-0.195-0.152-0.33-0.13-0.406c-0.583-1.396-1.094-2.836-1.53-4.313c-0.438-1.48-0.765-2.988-0.979-4.525
			c-0.3-2.955-0.198-5.961,0.308-9.016c0.506-3.053,1.466-5.893,2.875-8.523c1.486-2.607,3.396-4.91,5.732-6.907
			c2.334-1.994,4.808-3.684,7.419-5.069c1.267-0.702,2.57-1.313,3.908-1.832c1.336-0.518,2.684-0.993,4.038-1.426
			c1.527-0.463,3.125-0.888,4.792-1.27c1.666-0.383,3.313-0.545,4.938-0.491c1.775,0.099,3.43,0.552,4.963,1.361
			C222.514,176.008,223.847,177.15,224.984,178.623z"/>
		<path fill="#333333" d="M290.431,224.94c0.302,0.086,0.62,0.26,0.958,0.52c0.333,0.262,0.409,0.57,0.227,0.928
			c-0.394,0.791-0.993,1.314-1.805,1.572c-0.813,0.26-1.588,0.529-2.324,0.811c-0.986,0.293-1.915,0.6-2.786,0.924
			c-0.873,0.324-1.813,0.67-2.818,1.037c-1.843,0.701-3.646,1.414-5.411,2.139c-1.767,0.725-3.516,1.535-5.249,2.432
			c-1.614,0.768-3.327,1.59-5.134,2.465c-1.811,0.877-3.555,1.811-5.233,2.805c-1.68,0.994-3.287,2.094-4.819,3.293
			c-1.534,1.201-2.842,2.549-3.925,4.041c-0.38,0.465-1.024,0.568-1.935,0.307c-1.213,0.225-2.533-0.031-3.963-0.766
			c-1.428-0.74-2.505-1.418-3.229-2.035c-1.028-0.705-2.061-1.758-3.093-3.16c-1.033-1.404-1.43-2.809-1.189-4.217
			c0.293-1.311,0.662-2.598,1.108-3.865c0.443-1.266,1.003-2.498,1.676-3.701c-1.03,0.443-2.007,0.922-2.934,1.434
			c-0.928,0.516-1.904,0.992-2.933,1.436c-1.887,0.855-3.734,1.656-5.549,2.408c-1.815,0.752-3.735,1.369-5.76,1.854
			c-1.756,0.398-3.669,0.711-5.743,0.938c-2.074,0.225-3.906-0.178-5.497-1.207c-0.204-0.143-0.536-0.422-0.99-0.838
			c-0.454-0.418-0.816-0.869-1.087-1.357c-1.417-1.061-2.585-2.277-3.504-3.648c-0.917-1.371-1.258-2.76-1.02-4.168
			c0.077-0.551,0.19-1.092,0.342-1.623c0.151-0.529,0.304-1.061,0.456-1.592c0.177-2.902,0.86-5.576,2.053-8.021
			c1.389-3.127,3.25-6.039,5.58-8.734c2.332-2.693,4.834-5.135,7.511-7.318c5.017-4.055,10.576-7.219,16.682-9.488
			c6.104-2.266,12.387-3.377,18.852-3.328c0.075,0.021,0.109,0.053,0.099,0.09c-0.011,0.039-0.056,0.045-0.131,0.023
			c-6.012,0.656-11.865,2.053-17.562,4.191c-5.699,2.139-10.937,5.107-15.714,8.904c-2.321,1.795-4.514,3.791-6.576,5.986
			c-2.063,2.197-3.877,4.59-5.439,7.174c2.246-2.963,4.768-5.623,7.576-7.975c2.806-2.352,5.727-4.529,8.762-6.531
			c2.642-1.783,5.4-3.391,8.271-4.824c2.87-1.432,5.876-2.477,9.018-3.135c3.683-0.83,7.516-0.9,11.5-0.209
			c3.983,0.691,7.382,2.424,10.195,5.199c0.39,0.357,0.737,0.785,1.047,1.283c0.307,0.498,0.549,1.018,0.722,1.561
			c0.171,0.541,0.188,1.059,0.047,1.551c-0.142,0.494-0.467,0.912-0.976,1.258c-0.489,0.271-1.047,0.438-1.682,0.502
			c-0.634,0.064-1.296,0.08-1.981,0.047c-0.688-0.031-1.372-0.086-2.046-0.156c-0.678-0.07-1.303-0.105-1.877-0.107
			c-1.321,0.033-2.619,0.193-3.891,0.484c-1.273,0.291-2.537,0.625-3.793,1.004c-2.634,0.887-5.119,1.977-7.458,3.273
			c-2.34,1.297-4.628,2.693-6.858,4.186c-1.939,1.33-3.845,2.752-5.713,4.266c-1.87,1.516-3.609,3.148-5.218,4.9
			c-1.61,1.754-3.034,3.643-4.27,5.666c-1.237,2.023-2.219,4.16-2.945,6.412c0.096-0.053,0.184-0.07,0.26-0.049
			c0.074,0.021,0.162,0.008,0.26-0.047c1.873-0.529,3.698-1.174,5.476-1.936c1.775-0.764,3.584-1.496,5.428-2.197
			c2.403-0.951,4.796-1.863,7.181-2.738c2.383-0.875,4.765-1.75,7.149-2.625c0.096-0.053,0.157-0.119,0.179-0.195
			c0.975-1.113,1.99-2.154,3.048-3.123c1.056-0.969,2.164-1.902,3.324-2.799c0.552-0.498,1.16-1.041,1.82-1.631
			c0.661-0.59,1.333-1.074,2.017-1.453c0.778-0.432,1.647-0.674,2.606-0.729c0.957-0.053,1.854,0.039,2.689,0.279
			c1.687,0.402,3.211,1.166,4.569,2.295c1.356,1.127,2.246,2.531,2.668,4.209c0.475,1.777,0.216,3.18-0.775,4.205
			c-0.992,1.029-2.041,2.041-3.146,3.035c-2.092,1.859-3.973,3.701-5.641,5.518c-1.552,1.689-2.853,3.365-3.904,5.031
			c1.777-1.047,3.607-1.998,5.494-2.854c1.884-0.854,3.768-1.707,5.654-2.561c1.884-0.854,3.772-1.645,5.663-2.375
			c1.889-0.729,3.794-1.436,5.71-2.115c1.82-0.625,3.756-1.301,5.809-2.025C286.644,224.634,288.59,224.495,290.431,224.94z"/>
		<path fill="#333333" d="M330.143,188.104c1.493,1.658,2.574,3.465,3.243,5.42s1.034,3.967,1.1,6.035
			c0.062,2.068-0.105,4.152-0.501,6.252c-0.399,2.102-0.956,4.115-1.671,6.041c-0.532,1.57-1.159,3.111-1.879,4.629
			c-0.724,1.514-1.491,2.977-2.304,4.383c-1.659,3.215-3.642,6.193-5.945,8.936c-2.304,2.744-4.816,5.283-7.535,7.619
			c-2.505,2.154-5.131,4.168-7.882,6.043c-2.753,1.877-5.565,3.676-8.436,5.395c-1.463,0.811-2.933,1.578-4.412,2.303
			s-3.004,1.395-4.573,2.01c-0.737,0.279-1.512,0.551-2.323,0.811c-0.813,0.258-1.625,0.518-2.438,0.777
			c-0.542,0.172-1.049,0.295-1.519,0.363c-0.472,0.068-0.919,0.125-1.341,0.17c-0.434,0.367-0.972,0.602-1.617,0.705
			c-0.644,0.102-1.274,0.084-1.892-0.051c-0.618-0.139-1.243-0.316-1.875-0.537c-0.634-0.225-1.156-0.477-1.567-0.758
			c-1.386-0.889-2.805-2.016-4.261-3.375c-1.455-1.357-2.295-2.934-2.521-4.719c-0.172-1.115,0.11-2.244,0.848-3.387
			c0.738-1.141,1.361-2.172,1.871-3.092c0.996-1.764,1.99-3.51,2.977-5.236s1.969-3.434,2.945-5.121
			c0.879-1.635,1.784-3.221,2.716-4.758c0.932-1.535,1.763-3.143,2.49-4.822c0.607-1.547,1.063-3.139,1.368-4.773
			c0.303-1.635,0.597-3.23,0.883-4.791c0.074-0.551,0.317-0.973,0.731-1.266c0.409-0.293,0.87-0.467,1.381-0.527
			c0.508-0.057,1.033-0.031,1.575,0.082c0.54,0.115,1.039,0.238,1.494,0.367c1.266,0.447,2.494,1.168,3.686,2.164
			c1.188,0.998,2.048,2.146,2.579,3.445c1.599,3.576,1.878,7.182,0.835,10.818c-0.532,1.57-1.141,3.117-1.824,4.645
			c-0.683,1.525-1.433,2.992-2.245,4.4c-1.433,2.705-2.922,5.395-4.466,8.068c-1.547,2.674-3.071,5.352-4.579,8.035
			c0.757-0.355,1.529-0.688,2.315-0.996c0.784-0.309,1.556-0.641,2.315-0.998c1.808-0.875,3.528-1.797,5.159-2.764
			c1.63-0.967,3.191-2.057,4.689-3.27c2.914-2.443,5.549-5.133,7.909-8.066c2.356-2.932,4.36-6.129,6.011-9.594
			c1.713-3.689,3.193-7.428,4.443-11.211c1.248-3.783,2.123-7.695,2.625-11.732c0.142-1.928,0.16-3.85,0.055-5.768
			c-0.108-1.916-0.47-3.658-1.084-5.23c-0.055-0.096-0.225-0.434-0.511-1.008c-0.288-0.572-0.403-0.811-0.349-0.715
			c-0.11-0.193-0.208-0.346-0.3-0.455c-0.093-0.107-0.193-0.258-0.3-0.455c0.42,0.533,0.558,0.695,0.413,0.488
			c-0.146-0.205-0.587-0.74-1.321-1.609c-0.347-0.508-0.698-1-1.055-1.471c-0.357-0.471-0.66-0.988-0.908-1.552
			c-0.132-0.118-0.254-0.337-0.365-0.658c-0.114-0.32-0.199-0.59-0.26-0.813c-0.06-0.222-0.104-0.356-0.129-0.406
			c-0.027-0.049,0.029,0.112,0.17,0.479c-0.336-0.834-0.388-1.587-0.152-2.258c0.233-0.671,0.819-1.076,1.764-1.216
			c1.363-0.182,2.692-0.027,3.987,0.467c1.292,0.493,2.513,1.171,3.66,2.033c1.146,0.863,2.218,1.846,3.214,2.951
			c0.993,1.105,1.838,2.168,2.531,3.186c1.222,1.746,2.231,3.654,3.032,5.729c0.799,2.074,1.343,4.18,1.634,6.313
			c0.054,0.672,0.108,1.344,0.161,2.014c0.054,0.672,0.067,1.332,0.047,1.982c0.457-2.74,0.533-5.506,0.227-8.301
			c-0.306-2.795-1.271-5.365-2.892-7.719c0.021-0.074,0.056-0.125,0.105-0.154C330.149,188.005,330.163,188.03,330.143,188.104z
			 M280.435,248.646l0.081,0.146c-0.109-0.195-0.214-0.328-0.316-0.4c-0.104-0.068-0.209-0.201-0.316-0.396
			C279.99,248.19,280.174,248.407,280.435,248.646z"/>
		<path fill="#333333" d="M378.438,253.491c0.15,0.043,0.439,0.248,0.868,0.619c0.426,0.367,0.466,0.584,0.121,0.648
			c-2.784,0.844-5.56,1.729-8.327,2.656c-2.768,0.93-5.5,1.951-8.196,3.063c-2.773,1.094-5.521,2.232-8.238,3.42
			c-2.721,1.189-5.531,2.271-8.434,3.242c-2.654,0.961-5.378,1.738-8.172,2.33c-2.795,0.596-5.626,0.889-8.496,0.887
			c-1.473-0.014-2.911-0.139-4.319-0.377c-1.407-0.24-2.75-0.707-4.026-1.4c-0.771-0.467-1.587-1.051-2.452-1.748
			c-0.865-0.701-1.541-1.488-2.028-2.365c-0.552-0.65-0.939-1.295-1.167-1.934c-0.4-1.18-0.617-2.207-0.655-3.08
			c-0.037-0.871,0.081-1.924,0.352-3.158c0.165-0.855,0.427-1.701,0.79-2.541c0.364-0.838,0.752-1.691,1.164-2.557
			c1.302-2.826,2.912-5.439,4.831-7.842c1.845-2.424,3.861-4.674,6.056-6.752c2.194-2.076,4.499-4.039,6.917-5.891
			c2.471-1.75,5.074-3.32,7.809-4.711c2.735-1.387,5.57-2.48,8.507-3.281c1.58-0.365,3.229-0.611,4.946-0.734
			c1.715-0.123,3.402-0.07,5.06,0.158c1.656,0.23,3.276,0.654,4.863,1.271c1.585,0.621,3.001,1.475,4.245,2.57
			c0.259,0.238,0.527,0.521,0.804,0.846c0.274,0.324,0.483,0.672,0.623,1.039c0.844,1.063,1.113,2.41,0.81,4.047
			c-0.305,1.635-0.718,3.074-1.238,4.318c-2.073,4.654-4.968,8.459-8.684,11.41c-1.812,1.449-3.861,2.666-6.151,3.65
			c-2.292,0.984-4.646,1.682-7.06,2.098c-2.415,0.414-4.833,0.48-7.252,0.195c-2.422-0.283-4.701-0.979-6.845-2.084
			c-0.239,0.26-0.43,0.492-0.57,0.697c-0.14,0.205-0.293,0.449-0.454,0.73c-0.825,1.158-1.605,2.307-2.343,3.449
			c-0.738,1.141-1.367,2.336-1.887,3.58c-0.349,0.639-0.618,1.299-0.814,1.98c-0.195,0.682-0.391,1.363-0.586,2.047l-0.229,0.795
			c0.649,0.023,1.305,0.025,1.965,0.01c0.661-0.014,1.326-0.051,1.998-0.104c2.587-0.16,5.174-0.525,7.758-1.098
			c2.581-0.57,5.093-1.246,7.529-2.023c2.533-0.83,5.041-1.711,7.523-2.641c2.481-0.93,4.987-1.809,7.522-2.641
			c2.533-0.832,5.087-1.514,7.66-2.049C373.105,253.706,375.742,253.456,378.438,253.491z M357.729,233.04
			c-2.253,0.994-4.466,2.205-6.637,3.633c-2.175,1.428-4.187,2.941-6.039,4.541c-0.847,0.662-1.644,1.375-2.396,2.143
			c-0.755,0.768-1.526,1.531-2.317,2.289c0.573,0,1.109-0.01,1.607-0.031s0.997-0.041,1.495-0.064
			c3.875-0.365,7.611-1.385,11.21-3.061c3.736-1.881,6.862-4.346,9.379-7.398c0.616-0.723,1.149-1.432,1.593-2.125
			c0.444-0.691,0.938-1.412,1.48-2.16c0.021-0.074,0.172-0.318,0.456-0.729c-0.499,0.021-1.022,0.057-1.568,0.104
			c-0.548,0.049-1.042,0.131-1.485,0.25c-1.237,0.303-2.411,0.684-3.527,1.143C359.864,232.034,358.781,232.522,357.729,233.04z"/>
	</g>
</g>
<g display="none" opacity="0.05">
	
		<text transform="matrix(0.9593 -0.2823 0.2823 0.9593 29.9985 283.1514)" display="inline" fill="#333333" font-family="'decalledscript'" font-size="124.1197">Experts</text>
</g>
<g display="none" opacity="0.05">
	
		<text transform="matrix(0.9733 0.2295 -0.2295 0.9733 14.5718 204.8428)" display="inline" fill="#333333" font-family="'decalledscript'" font-size="184.6516">Blog</text>
</g>
<g display="none" opacity="0.05">
	
		<text transform="matrix(0.9943 0.1068 -0.1068 0.9943 1.9702 192.3789)" display="inline" fill="#333333" font-family="'decalledscript'" font-size="52.9959">Trade Association</text>
</g>
</svg>
