<svg xmlns="http://www.w3.org/2000/svg" width="400" height="400" viewBox="0 0 400 400">
<path d="M400,207.826c-26.76,29.073-61.535,31.146-97.268,27.039
	c-25.803-2.991-43.191,5.862-58.227,27.238c-21.017,30.03-45.264,57.707-68.075,86.461c-14.197,17.826-14.157,17.906-41.755,14.955
	c13.759-43.39,27.398-86.301,42.034-132.283c-26.17-2.755-52.358-5.417-78.497-8.45c-25.948-3.013-42.396-7.081-62.36,12.479
	c-8.654,8.454-14.237,23.968-35.254,19.541C18.784,218.275,20.1,181.904,0,145.573c1.954-1.077,3.948-2.153,5.942-3.19
	c5.503,2.832,13.041,4.188,16.191,8.694c18.903,27.118,43.749,33.26,75.134,27.078c25.044-4.945,50.847-5.981,79.402-9.092
	c-14.277-44.905-27.916-87.856-41.914-131.725c17.508-4.945,29.711-2.433,40.838,12.563c25.762,34.536,52.721,68.275,80.598,101.177
	c6.102,7.138,17.746,10.05,27.318,13.599c4.546,1.675,10.209,0.559,15.354,0.279c36.81-2.153,73.181-2.951,101.137,27.358
	C400,197.498,400,202.603,400,207.826z"/>
</svg>
