<svg xmlns="http://www.w3.org/2000/svg" width="400" height="400" viewBox="0 0 400 400">
<g>
	<path d="M198.242,339.812c-49.068-59.315-96.884-117.269-115.047-192.772
		c-11.882-49.396,8.23-98.723,49.873-126.726c40.538-27.239,93.845-27.075,134.412,0.437c41.287,28.002,60.637,77.752,49.463,127.08
		C304.5,202.703,248.551,294.123,198.242,339.812z M240.008,120.209c-0.123-21.598-18.043-39.558-39.681-39.762
		c-21.652-0.232-39.83,17.333-40.389,39.012c-0.572,22.565,18.341,41.574,40.88,41.056
		C222.375,160.025,240.143,141.738,240.008,120.209z"/>
	<path d="M60.493,400c0-13.137,0-24.541,0-37.187c93.382,0,185.66,0,279.015,0
		c0,12.672,0,24.077,0,37.187C247.08,400,154.801,400,60.493,400z"/>
</g>
</svg>
