<svg id="Layer_1" data-name="Layer 1" xmlns="http://www.w3.org/2000/svg" viewBox="0 0 7629.781 440.659">
  <defs>
    <style>
      .cls-1 {
        fill: none;
        stroke: #3d202a;
        stroke-miterlimit: 10;
        stroke-width: 4px;
      }
    </style>
  </defs>
  <title>map1raise</title>
  <path class="cls-1" d="M0,316.61C306.146,313.574,295.49,79.165,586.906,79.165c291.156,0,285.906,237.444,586.906,237.444"/>
  <path class="cls-1" d="M1173.813,316.61c306.146-3.035,295.49-5.444,586.906-5.444,291.156,0,285.906,5.444,586.906,5.444"/>
  <path class="cls-1" d="M2347.625,316.61c306.146-3.035,295.49-5.444,586.906-5.444,291.156,0,285.906,5.444,586.906,5.444"/>
  <path class="cls-1" d="M3521.438,316.61c306.146-3.035,295.49-5.444,586.906-5.444,291.156,0,285.906,5.444,586.906,5.444"/>
  <path class="cls-1" d="M4695.25,316.61c306.146-3.035,295.49-5.444,586.906-5.444,291.156,0,285.906,5.444,586.906,5.444"/>
  <path class="cls-1" d="M5869.063,316.61c306.146-3.035,295.49-5.444,586.906-5.444,291.156,0,285.906,5.444,586.906,5.444"/>
  <path class="cls-1" d="M7042.875,316.61c306.146-3.035,295.49-5.444,586.906-5.444"/>
</svg>
