<svg id="Layer_1" data-name="Layer 1" xmlns="http://www.w3.org/2000/svg" viewBox="0 0 8320 368.673">
  <defs>
    <style>
      .cls-1 {
        fill: none;
        stroke: #3d202a;
        stroke-miterlimit: 10;
        stroke-width: 4px;
      }
    </style>
  </defs>
  <title>map4raise-01</title>
  <path class="cls-1" d="M0,244.624c306.146-3.035,295.49-5.444,586.906-5.444,291.156,0,285.906,5.444,586.906,5.444"/>
  <path class="cls-1" d="M1173.813,244.624c306.146-3.035,295.49-5.444,586.906-5.444,291.156,0,285.906,5.444,586.906,5.444"/>
  <path class="cls-1" d="M2347.625,244.624c306.146-3.035,295.49-5.444,586.906-5.444,291.156,0,285.906,5.444,586.906,5.444"/>
  <path class="cls-1" d="M3521.438,244.624c306.146-3.035,295.49-225.444,586.906-225.444,291.156,0,285.906,225.444,586.906,225.444"/>
  <path class="cls-1" d="M4695.25,244.624c306.146-3.035,295.49-5.444,586.906-5.444,291.156,0,285.906,5.444,586.906,5.444"/>
  <path class="cls-1" d="M5869.063,244.624c306.146-3.035,295.49-5.444,586.906-5.444,291.156,0,285.906,5.444,586.906,5.444"/>
  <path class="cls-1" d="M7042.875,244.624c306.146-3.035,295.49-5.444,586.906-5.444,291.156,0,285.906,5.444,586.906,5.444"/>
</svg>
