<svg xmlns="http://www.w3.org/2000/svg" width="20" height="20" viewBox="0 0 400 400" style="fill: #fff;">
<path d="M399.9,13.641c-4.49-4.464-8.93-8.916-13.418-13.393
	c-50.403-2-81.191,30.117-111.148,63.832c-4.198,4.684-8.149,10.563-13.516,13.039c-11.369,5.184-23.956,12.796-35.424,11.844
	c-52.548-4.33-105.097-10.16-157.256-17.797c-22.59-3.306-35.325,5.051-46.157,24.481c50.012,25.86,98.999,51.22,150.182,77.689
	c-22.005,27.408-43.425,50.61-60.795,76.568c-21.811,32.495-48.646,48.692-88.46,41.569c-6.587-1.17-14.296,4.171-21.517,6.513
	c-0.83,2.611-1.61,5.246-2.391,7.882c48.841,14.051,79.141,46.644,94.998,93.972c22.054-14.343,13.467-32.591,13.613-47.426
	c0.195-20.175,1.903-38.447,22.933-47.889c4.83-2.146,8.051-6.465,12.344-9.93c27.03-22.054,54.11-44.009,83.092-67.503
	c27.129,52.428,52.451,101.341,78.066,150.793c26.445-21.323,26.348-21.323,23.177-49.039c-5.123-44.595-8.1-89.556-15.857-133.7
	c-5.513-31.496,1.903-54.196,26.787-73.944C373.6,93.879,401.9,62.018,399.9,13.641z"/>
</svg>