<svg id="Middel_East_Asia" data-name="Middel East Asia" xmlns="http://www.w3.org/2000/svg" viewBox="0 0 1920 1080"><defs><style>.cls-1,.cls-2{fill:#e6e6e6;}.cls-2{stroke:#fff;}.cls-2,.cls-7{stroke-miterlimit:10;}.cls-3{font-size:24.88px;fill:#4d4d4d;font-family:Roboto-Black, Roboto;font-weight:800;}.cls-4{letter-spacing:-0.01em;}.cls-5{letter-spacing:-0.04em;}.cls-6{fill:#545353;}.cls-7{fill:none;stroke:#545353;}</style></defs><title>Middel east asia  </title><polygon class="cls-1" points="1332.48 675.43 1339.88 701.41 1335.25 771.42 1243.95 798.69 1242.05 814.52 1271.27 851.6 1267.09 865.53 1285.55 887.48 1289.82 886.36 1291.53 887.59 1297.85 887.59 1301.97 880.8 1309.03 881.03 1320.42 874.85 1326.85 875.34 1332.28 874.27 1337.39 877.41 1341.25 877.03 1349.02 865.54 1348.63 864.19 1350.21 863.83 1350.59 860.06 1347.54 858.38 1348.15 854.39 1347.31 851.23 1351.8 846.76 1354.7 843.73 1365.85 843.97 1373.85 842.62 1377.72 844.2 1383.77 838.02 1386.69 835.39 1386.69 825.44 1398.43 811.13 1405.71 809.21 1410.18 811.39 1413.45 809.09 1429.44 807.76 1430.65 804.61 1427.99 802.17 1423.99 790.67 1425.83 790.3 1422.78 784.49 1421.45 784.12 1423.5 779.01 1423.5 773.46 1428.96 763.04 1432.72 762.09 1430.41 757.94 1431.86 757.6 1435.75 750.57 1438.88 748.03 1441.78 749.12 1440.22 752.27 1439.62 755.79 1443.01 757.6 1446.78 757.94 1450.38 745.73 1454.16 742.47 1457.71 734.98 1465.49 727.97 1477.38 709.02 1478.5 704.2 1477.9 700.03 1481.79 693.05 1482.14 686.84 1480.08 684.57 1474.23 683.5 1462.34 673.79 1459.42 667.97 1453.84 662.87 1451.39 654.57 1442.41 642.68 1438.04 642.42 1430.04 644.15 1415.7 641.44 1409.62 641.71 1405.47 643.64 1397.45 641.44 1379.47 626.41 1378.5 622.02 1367.83 608.91 1366.12 589.69 1359.82 590.59 1332.48 675.43"/><polygon class="cls-1" points="1271.27 851.6 1242.05 814.52 1243.95 798.69 1122.52 834.98 1064.2 913.92 1062.79 884.76 1034.12 870.87 1006.54 859.75 986.4 859.06 976.7 851.19 968.13 854.91 963.95 870.15 969.74 881.04 961.2 886.58 957.73 893.06 952.84 890.98 947.15 890.43 949.2 896.34 952.1 912.61 951.62 922.33 947.97 922.33 947.97 925.73 942.88 924.27 945.07 928.89 948.47 928.89 948.7 933.76 956.49 943.71 960.6 973.58 968.87 981.14 969.36 990.11 965.96 992.3 969.36 1001.05 976.18 1008.35 977.39 1016.35 980.05 1021.7 986.61 1020.73 988.31 1018.56 997.3 1021.46 1002.63 1020.24 1009.21 1014.67 1015.54 1014.67 1018.93 1018.04 1024.99 1015.62 1031.07 1007.11 1034.23 1006.65 1037.86 998.14 1045.89 993.04 1050.02 991.81 1055.12 992.08 1056.34 994 1065.58 993.54 1067.52 995.95 1073.83 997.41 1088.9 991.58 1101.03 990.35 1105.19 986.97 1105.9 983.07 1117.38 974.08 1122.36 974.32 1126.36 977.44 1130.94 976.51 1133.97 973.58 1135.91 975.42 1140.41 975.42 1149.72 967.66 1156.38 956.76 1162.32 953.82 1165.71 954.22 1201.16 943.71 1204.32 940.31 1224.22 936.65 1236.85 930.35 1243.18 924.51 1257.04 921.59 1255.81 917.95 1256.78 916.01 1254.13 913.32 1255.09 905.33 1266.02 891.98 1278.39 889.29 1285.55 887.48 1267.09 865.53 1271.27 851.6"/><polygon class="cls-2" points="1220.73 645.76 1227.69 670.79 1321.81 685.18 1332.58 675.11 1359.82 590.59 1366.12 589.69 1365.39 581.71 1364.42 577.32 1361.49 578.3 1359.8 576.82 1359.85 575.9 1356.98 575.76 1356.05 564.37 1351.99 563.1 1351.91 567.75 1350.1 570.92 1330.17 582.9 1330.17 591.66 1311.69 607.45 1308.79 612.06 1311.46 613.04 1313.14 616.94 1304.9 625.67 1301.97 621.54 1299.29 623.49 1295.18 623.49 1295.66 628.6 1293.72 629.09 1292.24 632 1282.79 633.7 1275.98 634.44 1273.05 630.78 1266.76 631.24 1264.08 629.83 1259.46 630.78 1248.52 628.33 1235.4 638.57 1230.29 637.07 1225.44 636.6 1220.33 638.78 1218.4 624.2 1215.74 627.14 1213.24 625.53 1213.03 636.6 1220.73 645.76"/><text class="cls-3" transform="translate(1529.03 634.53)">UN<tspan class="cls-4" x="34.79" y="0">I</tspan><tspan x="41.86" y="0">TED</tspan><tspan x="11.24" y="29.86">ARAB</tspan><tspan x="-15.5" y="59.72">EMIR</tspan><tspan class="cls-5" x="43.35" y="59.72">A</tspan><tspan x="58.15" y="59.72">TES</tspan></text><circle class="cls-6" cx="1301.13" cy="652.97" r="3.46"/><polygon class="cls-1" points="1200.08 613.23 1205.4 613.23 1205.29 613.04 1208.92 612.32 1211.34 596.53 1207.96 590.19 1205.76 590.19 1204.55 579.26 1206.01 579.26 1208.2 568.81 1206.98 566.63 1204.32 566.63 1203.82 563.26 1198.24 558.87 1195.79 558.87 1194.82 561.77 1192.4 562.02 1192.4 564.69 1190.22 566.39 1191.42 571.51 1189.97 571.51 1191.66 581.21 1189.97 579.98 1187.31 579.98 1186.34 589.72 1187.79 594.33 1189.97 597.01 1189.97 603.59 1188.33 604.63 1189.67 607.69 1200.08 613.23"/><polygon class="cls-1" points="1537.1 573.65 1534.08 565.79 1538.96 559.07 1537.31 553.5 1540.57 547.25 1550.28 543.33 1553.54 539.85 1569.06 535.22 1577.37 538.46 1582 534.07 1581.07 521.57 1572.75 516 1564.87 516.48 1563.24 510.71 1562.8 501.9 1560.49 494.49 1560.23 483.62 1551.45 482.68 1550.51 479.2 1544.52 476.9 1533.85 475.97 1531.08 472.74 1522.98 468.33 1514.63 459.53 1510.92 452.13 1494.27 429.89 1518.33 397.03 1520.88 393.1 1517.64 380.37 1518.33 371.57 1513.25 360.47 1485.25 360.01 1484.32 348.2 1481.09 342.42 1483.38 338 1478.77 322.97 1470.2 306.31 1471.82 297.97 1481.77 285.7 1479.01 285.7 1468.11 283.17 1468.11 276.9 1466.03 265.31 1464.43 263.95 1470.43 255.38 1465.12 251.2 1462.33 246.81 1469.28 244.97 1477.6 239.4 1477.15 235.25 1478.77 233.62 1474.58 228.04 1476.92 223.22 1476.22 218.82 1476.66 209.78 1476.31 209.05 1473.66 204.01 1473.9 199.13 1471.14 191.25 1473.45 186.38 1468.35 177.39 1460.25 173.9 1446.13 172.72 1433.16 154.69 1421.13 151.92 1414.41 153.53 1411.4 151.22 1409.54 141.71 1402.85 140.57 1389.88 135.25 1384.78 138.71 1379.7 138.95 1360.96 127.13 1350.98 124.37 1339.41 115.1 1332.25 115.34 1326.01 112.81 1319.51 114.41 1317.19 122.06 1305.17 119.5 1291.49 122.06 1278.08 133.4 1272.75 133.85 1268.58 139.18 1265.81 147.75 1250.08 148.67 1243.41 152.5 1246.53 160.87 1251.38 168.05 1249.08 176.39 1241.9 175 1223.38 173.39 1207.41 175.45 1186.11 181.49 1176.63 181.49 1157.19 175.91 1150.02 175.22 1133.81 168.75 1128.95 162.72 1126.87 155.78 1122.26 155.55 1114.81 150.69 1107.18 153.47 1101.88 151.62 1094.24 151.62 1087.99 144.91 1083.12 144.22 1081.04 141.2 1082.42 133.79 1081.48 126.17 1076.89 119.44 1076.9 117.49 1074.15 119.27 1068.82 118.11 1066.74 114.41 1061.42 111.87 1050.72 100.11 1061.15 93.05 1053.74 88.41 1051.99 85.16 1055.94 81.9 1051.64 77.6 1048.87 72.83 1045.85 72.12 1045.25 70.27 1041.91 70.16 1035.86 74.7 1031.23 75.63 1027.17 81.08 1023.34 82.69 1017.89 90.37 1014.54 90.5 1012.34 93.62 1011.3 97.35 1005.63 99.83 1001.1 98.3 994.03 99.61 993.97 99.54 992.21 104.7 983.2 99.61 974.77 99.31 966.42 95.03 965.36 88.86 951.33 81.21 951.82 76.56 949.52 70.8 945.5 71.14 940.97 65.86 939.66 65.79 939.66 65.8 936.19 68.82 932.95 77.39 923.93 78.07 924.17 81.32 927.63 87.56 930.63 99.61 929.71 105.62 929.94 114.41 937.35 115.34 939.43 119.27 935.27 129 935.72 138.25 935.03 141.97 943.59 145.19 950.54 157.69 953.55 165.1 951.89 170.64 952.62 170.44 958.64 170.9 961.67 178.98 961.41 184.79 964.43 191.03 969.29 192.19 972.53 197.52 975.55 204.92 981.35 208.15 986.03 208.84 996.92 215.11 1001.69 216.28 1008.65 215.57 1013.05 217.79 1015.81 219.64 1013.86 221.04 1007.61 223.13 1003.78 223.9 1004.48 232.23 1007.03 233.85 1007.03 245.18 1003.08 247.73 998.91 246.81 997.76 256.77 994.3 259.77 994.06 271.59 992.21 275.99 994.3 279.24 991.74 282.7 991.74 287.1 996.14 287.55 999.61 291.94 1006.54 293.34 1007.95 297.97 1015.13 303.99 1012.11 310.69 1013.97 313.02 1012.81 316.94 1019.54 322.03 1022.77 319.73 1028.31 319.27 1052.16 335.01 1055.62 333.62 1059.56 336.38 1065.6 347.71 1071.62 350.98 1078.32 365.34 1071.62 371.35 1071.15 380.84 1073.7 389.4 1083.88 389.4 1085.95 409.32 1091.52 413.25 1098.45 416.02 1100.82 417.96 1103.71 416.72 1103.48 418.67 1108.34 424.99 1112.22 424.73 1115.87 421.59 1116.11 415.51 1111.25 411.62 1115.15 412.12 1119.51 411.86 1121.2 409.91 1119.99 413.57 1119.03 417.22 1126.32 420.62 1129.22 419.41 1132.38 425.23 1135.54 425.47 1145.52 417.22 1148.91 418.9 1155.71 427.92 1156.44 433.99 1168.09 448.07 1169.08 458.03 1172.48 460.21 1177.34 459.5 1180.74 465.32 1178.32 465.32 1176.13 463.88 1174.66 465.56 1180.48 470.43 1183.39 469.44 1184.61 474.55 1194.34 496.17 1200.9 500.06 1212.56 498.85 1220.83 501.53 1224.22 505.16 1234.43 505.65 1235.89 507.85 1241.96 508.33 1242.94 511.24 1239.04 514.62 1248.52 524.62 1256.05 526.3 1261.16 529.72 1266.5 530.44 1277.66 540.39 1280.84 538.7 1288.61 537.46 1299.29 540.16 1311.93 548.65 1323.09 539.42 1336.49 531.17 1336.72 527.52 1337.44 530.44 1343.99 530.2 1352.54 523.88 1359.08 521.93 1370 523.39 1370 525.57 1372.92 525.36 1373.66 528.75 1379.47 536.99 1382.89 548.65 1389.21 560.78 1389.68 569.32 1393.34 571.73 1394.56 575.16 1411.55 574.89 1418.59 574.64 1424.67 579.26 1432.22 572.95 1434.89 573.19 1443.39 581.21 1461.12 579.98 1471.08 584.38 1485.16 584.87 1490.77 586.83 1493.68 585.82 1498.27 589.72 1500.22 589.47 1501.68 583.9 1505.82 583.17 1508.98 588.71 1516.98 591.66 1527.69 595.56 1532.54 592.87 1533.99 590.19 1535.85 590.19 1535.7 585.01 1537.1 573.65"/><polygon class="cls-1" points="1083.51 427.87 1072.37 423.68 1058.01 430.19 1051.05 445.95 1043.9 459.47 1048.23 459.53 1077.63 468.56 1079.48 480.37 1099.08 471.23 1095.71 467.02 1096.93 466.28 1098.13 466.28 1094.47 462.15 1094.26 456.82 1092.08 451.95 1090.58 454.89 1077.95 446.62 1096.43 442.97 1093.27 428.63 1094.06 426.87 1090.92 425.56 1083.51 427.87"/><polygon class="cls-1" points="685.75 319.27 689.21 312.56 692.43 312.38 692.78 312.38 693.61 312.32 698.24 304.92 700.77 296.11 707.03 292.88 710.51 292.88 713.75 290.8 711.43 285.94 711.89 277.13 706.32 274.37 703.33 267.42 689.75 266.82 689.64 268.53 685.27 269.5 683.81 292.39 678.46 300.65 672.61 308.92 672.61 317.68 671.67 318.71 675.57 319.5 685.75 319.27"/><polygon class="cls-1" points="677.55 442.64 680.67 439.41 680.67 432.08 683.12 424.08 682.87 414.65 684.95 413.37 684.95 406.4 686.43 399.12 686.21 394.27 687.44 380.29 685.04 381.06 681.12 381.06 675.78 383.85 672.77 380.84 674.17 370.86 674.17 355.83 672.3 352.58 673.93 343.81 681.58 343.81 682.28 348.9 685.51 349.37 689.37 345.91 689.21 342.19 690.05 342.25 688.57 339.38 687.27 333.81 689.12 324.28 690.66 316.17 692.43 312.38 689.21 312.56 685.75 319.27 675.57 319.5 671.67 318.71 664.82 326.44 662.39 349.79 653.16 368.29 643.21 381.68 646.76 383.28 653.06 392.59 656.39 404.46 665.49 418.19 672.52 434.93 669.76 442.73 673.93 453.65 677.66 447.77 677.88 446.83 677.55 442.64"/><polygon class="cls-1" points="1077.63 468.56 1048.23 459.53 1043.9 459.47 983.37 458.48 833.14 354.14 803 350.43 791.43 362.46 743.66 377.33 779.84 416.73 766.37 432.96 765.46 442.23 740.9 445.95 717.7 468.64 685.25 459.37 675.29 459.8 674.4 471.63 674.89 485.24 671.5 494.46 672.21 497.85 676.84 496.17 678.3 498.59 682.43 495.69 689.71 499.82 687.74 501.04 701.87 516.85 703.33 523.62 706.46 525.07 707.69 531.65 714.74 537.97 718.12 538.2 727.38 554.02 727.62 559.1 730.04 564.69 735.14 565.65 736.6 573.68 739.75 578.05 747.04 581.21 752.89 596.53 757.5 599.69 759.44 609.41 757.5 613.52 757.5 618.15 764.29 622.99 764.54 628.33 768.92 631.02 773.77 626.14 780.58 631.75 790.79 636.39 798.82 644.63 801.24 651.66 803.64 652.16 804.64 660.18 807.77 662.87 810.46 673.79 816.78 679.36 818.76 690.57 820.7 694.11 818.26 704.65 815.87 706.83 818.26 711.93 821.42 723.58 822.76 735.79 828.57 740.87 829.54 745.36 845.9 762.82 851.35 765.09 857.83 765.63 862.21 771.94 865.37 771.94 874.84 779.97 875.08 784.81 883.11 786.24 882.13 790.9 886.26 792.59 893.8 820.3 900.59 824.43 901.09 832.7 925.39 857.2 929.02 857.2 931.22 871.07 941.42 873.97 947.15 890.43 952.84 890.98 957.73 893.06 961.2 886.58 969.74 881.04 963.95 870.15 968.13 854.91 976.7 851.19 986.4 859.06 1006.54 859.75 1034.12 870.87 1062.79 884.76 1064.2 913.92 1122.52 834.98 1243.95 798.69 1335.25 771.42 1339.88 701.41 1332.48 675.43 1332.58 675.11 1321.81 685.18 1227.69 670.79 1220.73 645.76 1213.03 636.6 1213.24 625.53 1213.05 625.44 1211.34 626.14 1208.45 621.09 1208.69 617.9 1211.61 614.25 1206.25 614.75 1205.4 613.23 1200.08 613.23 1189.67 607.69 1188.33 604.63 1186.58 605.75 1181.21 598.21 1179.76 589.95 1163.49 569.55 1159.34 561.77 1162.99 562.74 1162.99 559.1 1157.17 543.55 1157.17 539.94 1153.05 533.6 1150.12 533.6 1139.68 518.52 1135.78 518.3 1131.17 513.17 1131.67 510.98 1133.61 510.51 1136.28 512.23 1133.61 508.33 1128.25 507.35 1117.33 504.69 1111.25 488.4 1107.85 480.64 1103.71 478.43 1103.71 473.08 1101.52 474.32 1099.08 471.23 1079.48 480.37 1077.63 468.56"/><polygon class="cls-1" points="706.32 274.37 711.89 277.13 711.43 285.94 713.75 290.8 710.51 292.88 707.03 292.88 700.77 296.11 698.24 304.92 693.61 312.32 692.78 312.38 694.42 314.66 699.06 319.13 699.8 330.57 698.11 335.71 701.01 335.93 711.67 340.55 718.15 345.65 720.47 345.65 724.87 348.43 788.24 308.65 788.35 308.39 845.44 267.66 848.46 262.78 853.56 255.38 853.77 246.58 852.18 241.48 857.73 230.15 857.5 219.96 851.48 207.94 852.18 197.52 857.94 186.87 870.44 184.31 877.18 178.54 880.18 178.54 884.34 171.58 882.97 170.47 880.41 168.33 871.38 168.56 858.65 172.97 842.44 172.03 836.19 173.22 828.09 173.22 816.74 176.68 811.9 182 803.56 184.55 802.16 187.32 787.58 186.87 777.18 184.79 773.93 181.79 767.91 180.15 751.24 181.79 746.64 184.55 742.91 185.02 727.39 191.03 721.86 189.66 712.6 187.32 710.74 192.42 710.51 204.45 706.32 207 707.03 214.18 700.77 216.47 694.06 217.65 687.73 216.45 687.56 217.08 683.19 218.8 684.63 228.53 690.01 239.2 692.11 247.6 690.63 254.41 689.75 266.82 703.33 267.42 706.32 274.37"/><polygon class="cls-1" points="1091.52 413.25 1085.95 409.32 1083.88 389.4 1073.7 389.4 1071.15 380.84 1071.62 371.35 1078.32 365.34 1071.62 350.98 1065.6 347.71 1059.56 336.38 1055.62 333.62 1052.16 335.01 1028.31 319.27 1022.77 319.73 1019.54 322.03 1012.81 316.94 1013.97 313.02 1012.11 310.69 1015.13 303.99 1007.95 297.97 1006.54 293.34 999.61 291.94 996.14 287.55 991.74 287.1 991.74 282.7 994.3 279.24 992.21 275.99 994.06 271.59 994.3 259.77 997.76 256.77 998.91 246.81 1003.08 247.73 1007.03 245.18 1007.03 233.85 1004.48 232.23 1003.78 223.9 1007.61 223.13 1013.86 221.04 1015.81 219.64 1013.05 217.79 1008.65 215.57 1001.69 216.28 996.92 215.11 986.03 208.84 981.35 208.15 975.55 204.92 972.53 197.52 969.29 192.19 964.43 191.03 961.41 184.79 961.67 178.98 958.64 170.9 952.62 170.44 944.77 172.72 939.43 170.2 939.66 163.95 935.27 161.16 926.93 163.47 915.81 160.7 902.62 160.7 899.4 163.26 891.75 163.26 882.97 170.47 884.34 171.58 880.18 178.54 877.18 178.54 870.44 184.31 857.94 186.87 852.18 197.52 851.48 207.94 857.5 219.96 857.73 230.15 852.18 241.48 853.77 246.58 853.56 255.38 848.46 262.78 845.44 267.66 788.35 308.39 788.24 308.65 788.27 308.62 804.65 350.63 833.14 354.14 983.37 458.48 1043.9 459.47 1051.05 445.95 1058.01 430.19 1072.37 423.68 1083.51 427.87 1090.92 425.56 1094.06 426.87 1097.4 419.41 1100.82 417.96 1098.45 416.02 1091.52 413.25"/><polygon class="cls-1" points="717.62 469 740.94 446.24 765.62 442.51 766.53 433.22 780.07 416.94 743.71 377.42 791.71 362.51 803.34 350.45 805 350.65 788.53 308.51 788.51 308.54 724.83 348.43 720.41 345.65 718.08 345.65 711.57 340.54 700.85 335.9 697.59 335.67 693.64 339.17 691.54 342.41 688.99 342.18 689.15 345.91 689.22 347.98 689.94 351.9 688.75 354.93 688.06 363.53 688.29 368.42 685.97 394.41 686.2 399.28 684.71 406.57 684.71 413.57 682.63 414.86 682.87 424.31 680.41 432.33 680.41 439.69 677.27 442.93 677.61 447.13 677.39 448.07 677.61 447.68 677.86 450.84 675.1 458.85 675 460.13 685.01 459.7 717.62 469"/><line class="cls-7" x1="1302" y1="653.5" x2="1532" y2="657.5"/></svg>